<svg xmlns="http://www.w3.org/2000/svg" viewBox="0 0 472.16 94.52"><defs><style>.cls-1{fill:#fff;}</style></defs><title>ny3logo3</title><g id="Layer_2" data-name="Layer 2"><g id="Layer_3" data-name="Layer 3"><path class="cls-1" d="M71.15,83.76a80.81,80.81,0,0,1-26.63,4.76c-13.13,0-23.93-3.35-32.43-11.45C4.63,69.86,0,58.28,0,44.77.13,18.91,17.88,0,47,0,57,0,64.85,2.19,68.58,4l-2.7,9.13c-4.64-2-10.43-3.73-19.18-3.73-21.1,0-34.86,13.13-34.86,34.87,0,22,13.25,35,33.45,35,7.33,0,12.35-1,14.92-2.32V51.08H42.59v-9H71.15Z"/><path class="cls-1" d="M111.42,79.26l-.9-7.85h-.39a23.18,23.18,0,0,1-19,9.26c-12.61,0-19-8.88-19-17.88,0-15.06,13.38-23.29,37.44-23.16V38.34c0-5.14-1.42-14.41-14.15-14.41a31,31,0,0,0-16.21,4.63L76.55,21.1C81.7,17.76,89.16,15.57,97,15.57c19,0,23.67,13,23.67,25.47V64.33a87.93,87.93,0,0,0,1,14.93Zm-1.67-31.78c-12.35-.26-26.38,1.93-26.38,14,0,7.33,4.89,10.81,10.68,10.81a15.49,15.49,0,0,0,15-10.42,11.75,11.75,0,0,0,.65-3.61Z"/><path class="cls-1" d="M125.12,40.73c0-6.43-.13-11.71-.51-16.85h9.9l.52,10h.38C138.89,28,144.68,22.46,155,22.46A18.42,18.42,0,0,1,172.6,34.94h.25a25.76,25.76,0,0,1,7-8.11c3.73-2.83,7.85-4.37,13.77-4.37,8.23,0,20.46,5.4,20.46,27V86.15H203V50.89c0-12-4.37-19.17-13.51-19.17C183,31.72,178,36.48,176.07,42a18.76,18.76,0,0,0-.9,5.66V86.15H164.11V48.84c0-9.91-4.38-17.12-13-17.12-7.08,0-12.22,5.67-14,11.33a15.43,15.43,0,0,0-.9,5.53V86.15H125.12Z"/><path class="cls-1" d="M228.58,56.43c.26,15.31,10,21.61,21.36,21.61,8.1,0,13-1.41,17.24-3.21l1.93,8.1c-4,1.8-10.81,3.86-20.72,3.86-19.17,0-30.62-12.61-30.62-31.39S228.84,21.82,247,21.82c20.33,0,25.73,17.88,25.73,29.33a42.33,42.33,0,0,1-.39,5.28Zm33.19-8.11c.13-7.2-3-18.4-15.69-18.4-11.45,0-16.47,10.55-17.37,18.4Z"/><path class="cls-1" d="M288.16,4.76V41h41.95V4.76h11.32V91.48H330.11V50.82H288.16V91.48H277V4.76Z"/><path class="cls-1" d="M404.15,76.12c0,6.43.13,12.09.52,17h-10L394,82.94h-.26a23.43,23.43,0,0,1-20.59,11.58c-9.77,0-21.48-5.41-21.48-27.28V30.83H363V65.31c0,11.84,3.6,19.82,13.9,19.82,7.59,0,12.86-5.28,14.92-10.3a16.62,16.62,0,0,0,1-5.79V30.83h11.32Z"/><path class="cls-1" d="M412.72,93.09c.25-4.25.51-10.55.51-16.09V1.74h11.19V40.85h.26c4-7,11.2-11.45,21.23-11.45,15.44,0,26.38,12.87,26.25,31.78,0,22.26-14,33.32-27.92,33.32-9,0-16.21-3.47-20.85-11.71H423l-.52,10.3Zm11.7-25a20.9,20.9,0,0,0,.52,4.11c2.19,7.85,8.75,13.26,17,13.26,11.84,0,18.92-9.65,18.92-23.93,0-12.48-6.44-23.16-18.53-23.16-7.72,0-14.93,5.27-17.24,13.89a22.13,22.13,0,0,0-.65,4.63Z"/></g></g></svg>